<?xml version="1.0" encoding="utf-8"?>
<!-- Generator: Adobe Illustrator 26.2.1, SVG Export Plug-In . SVG Version: 6.00 Build 0)  -->
<svg version="1.0" id="Layer_1" xmlns="http://www.w3.org/2000/svg" xmlns:xlink="http://www.w3.org/1999/xlink" x="0px" y="0px"
	 viewBox="0 0 1312.61 1080" style="enable-background:new 0 0 1312.61 1080;" xml:space="preserve">
<style type="text/css">
	.st0{fill:#FFFFFF;}
</style>
<path d="M1244.57,203.38c-0.03-80.16-51.43-132.89-129.6-132.91c-307.52-0.09-615.05-0.07-922.57-0.01
	c-78.78,0.02-129.62,51.78-129.67,132.41c-0.15,226.48-0.18,452.96,0.02,679.44c0.07,79.79,50.61,131.33,128,131.35
	c153.76,0.04,307.52,0.01,461.29,0.01s307.52,0.01,461.29-0.01c80.57-0.01,131.23-51.29,131.26-133.25
	C1244.66,654.74,1244.67,429.06,1244.57,203.38z M701.52,850.58c-23.53,0-47.06,0.04-70.58,0.05
	C654.47,850.61,677.99,850.57,701.52,850.58c47.05,0,94.11,0.08,141.17-0.03C795.63,850.66,748.58,850.58,701.52,850.58z"/>
<g>
	<path class="st0" d="M653.65,931.92c-129.89,0-259.77,0.02-389.66-0.01c-65.37-0.02-108.07-42.47-108.13-108.2
		c-0.16-186.56-0.14-373.13-0.01-559.69c0.05-66.42,42.99-109.06,109.54-109.08c259.77-0.05,519.55-0.06,779.32,0.01
		c66.04,0.02,109.45,43.46,109.48,109.49c0.08,185.9,0.08,371.81,0,557.71c-0.03,67.51-42.81,109.76-110.88,109.77
		C913.42,931.93,783.54,931.92,653.65,931.92z M459.87,521.39c-34.19,41.47-67.16,81.19-99.7,121.24
		c-5.28,6.5-10.78,14.08-12.49,21.96c-3.91,18.03,2.87,32.74,19.84,41.21c18.13,9.05,33.58,3.74,46.03-11.05
		c34.94-41.55,69.59-83.33,104.44-124.95c38.32-45.75,38.53-47.45,0.94-93.34c-34.4-41.99-68.85-83.94-103.89-125.4
		c-21-24.85-52.5-22.17-64.88,4.9c-7.05,15.41-3.75,29.31,7.1,42.23C391.29,438.72,425.01,479.5,459.87,521.39z M695.45,797.57
		c39.75,0,79.5,0.07,119.25-0.02c26.17-0.06,41.95-13.11,41.83-34.31c-0.12-20.69-15.08-33.68-40.35-33.74
		c-80.16-0.22-160.32-0.23-240.48,0.02c-24.33,0.07-40.67,14.43-40.5,34.28c0.17,19.94,16.53,33.62,41.01,33.73
		C615.95,797.69,655.7,797.56,695.45,797.57z"/>
	<path d="M459.87,521.39c-34.85-41.89-68.58-82.67-102.61-123.2c-10.85-12.92-14.15-26.82-7.1-42.23
		c12.38-27.06,43.88-29.75,64.88-4.9c35.03,41.46,69.49,83.41,103.89,125.4c37.6,45.89,37.39,47.59-0.94,93.34
		c-34.86,41.61-69.5,83.4-104.44,124.95c-12.44,14.8-27.89,20.1-46.03,11.05c-16.97-8.47-23.75-23.18-19.84-41.21
		c1.71-7.88,7.21-15.46,12.49-21.96C392.71,602.58,425.68,562.87,459.87,521.39z"/>
	<path d="M695.45,797.56c-39.75,0-79.5,0.13-119.25-0.05c-24.48-0.11-40.84-13.8-41.01-33.73c-0.17-19.85,16.17-34.21,40.5-34.28
		c80.16-0.24,160.32-0.23,240.48-0.02c25.27,0.07,40.23,13.05,40.35,33.74c0.12,21.2-15.65,34.25-41.83,34.31
		C774.95,797.63,735.2,797.57,695.45,797.56z"/>
</g>
</svg>
